<svg id="visual" viewBox="0 0 900 600" width="900" height="600" xmlns="http://www.w3.org/2000/svg" xmlns:xlink="http://www.w3.org/1999/xlink" version="1.1"><path d="M0 247L13.7 245C27.3 243 54.7 239 82 217C109.3 195 136.7 155 163.8 150C191 145 218 175 245.2 185C272.3 195 299.7 185 327 187C354.3 189 381.7 203 409 201C436.3 199 463.7 181 491 167C518.3 153 545.7 143 573 148C600.3 153 627.7 173 654.8 167C682 161 709 129 736.2 122C763.3 115 790.7 133 818 133C845.3 133 872.7 115 886.3 106L900 97L900 0L886.3 0C872.7 0 845.3 0 818 0C790.7 0 763.3 0 736.2 0C709 0 682 0 654.8 0C627.7 0 600.3 0 573 0C545.7 0 518.3 0 491 0C463.7 0 436.3 0 409 0C381.7 0 354.3 0 327 0C299.7 0 272.3 0 245.2 0C218 0 191 0 163.8 0C136.7 0 109.3 0 82 0C54.7 0 27.3 0 13.7 0L0 0Z" fill="#677084"></path><path d="M0 301L13.7 301C27.3 301 54.7 301 82 279C109.3 257 136.7 213 163.8 203C191 193 218 217 245.2 224C272.3 231 299.7 221 327 234C354.3 247 381.7 283 409 282C436.3 281 463.7 243 491 220C518.3 197 545.7 189 573 195C600.3 201 627.7 221 654.8 221C682 221 709 201 736.2 194C763.3 187 790.7 193 818 196C845.3 199 872.7 199 886.3 199L900 199L900 95L886.3 104C872.7 113 845.3 131 818 131C790.7 131 763.3 113 736.2 120C709 127 682 159 654.8 165C627.7 171 600.3 151 573 146C545.7 141 518.3 151 491 165C463.7 179 436.3 197 409 199C381.7 201 354.3 187 327 185C299.7 183 272.3 193 245.2 183C218 173 191 143 163.8 148C136.7 153 109.3 193 82 215C54.7 237 27.3 241 13.7 243L0 245Z" fill="#545d72"></path><path d="M0 343L13.7 352C27.3 361 54.7 379 82 368C109.3 357 136.7 317 163.8 313C191 309 218 341 245.2 340C272.3 339 299.7 305 327 312C354.3 319 381.7 367 409 375C436.3 383 463.7 351 491 332C518.3 313 545.7 307 573 312C600.3 317 627.7 333 654.8 321C682 309 709 269 736.2 251C763.3 233 790.7 237 818 247C845.3 257 872.7 273 886.3 281L900 289L900 197L886.3 197C872.7 197 845.3 197 818 194C790.7 191 763.3 185 736.2 192C709 199 682 219 654.8 219C627.7 219 600.3 199 573 193C545.7 187 518.3 195 491 218C463.7 241 436.3 279 409 280C381.7 281 354.3 245 327 232C299.7 219 272.3 229 245.2 222C218 215 191 191 163.8 201C136.7 211 109.3 255 82 277C54.7 299 27.3 299 13.7 299L0 299Z" fill="#424b61"></path><path d="M0 433L13.7 449C27.3 465 54.7 497 82 494C109.3 491 136.7 453 163.8 440C191 427 218 439 245.2 431C272.3 423 299.7 395 327 408C354.3 421 381.7 475 409 493C436.3 511 463.7 493 491 469C518.3 445 545.7 415 573 414C600.3 413 627.7 441 654.8 433C682 425 709 381 736.2 365C763.3 349 790.7 361 818 374C845.3 387 872.7 401 886.3 408L900 415L900 287L886.3 279C872.7 271 845.3 255 818 245C790.7 235 763.3 231 736.2 249C709 267 682 307 654.8 319C627.7 331 600.3 315 573 310C545.7 305 518.3 311 491 330C463.7 349 436.3 381 409 373C381.7 365 354.3 317 327 310C299.7 303 272.3 337 245.2 338C218 339 191 307 163.8 311C136.7 315 109.3 355 82 366C54.7 377 27.3 359 13.7 350L0 341Z" fill="#394154"></path><path d="M0 601L13.7 601C27.3 601 54.7 601 82 601C109.3 601 136.7 601 163.8 601C191 601 218 601 245.2 601C272.3 601 299.7 601 327 601C354.3 601 381.7 601 409 601C436.3 601 463.7 601 491 601C518.3 601 545.7 601 573 601C600.3 601 627.7 601 654.8 601C682 601 709 601 736.2 601C763.3 601 790.7 601 818 601C845.3 601 872.7 601 886.3 601L900 601L900 413L886.3 406C872.7 399 845.3 385 818 372C790.7 359 763.3 347 736.2 363C709 379 682 423 654.8 431C627.7 439 600.3 411 573 412C545.7 413 518.3 443 491 467C463.7 491 436.3 509 409 491C381.7 473 354.3 419 327 406C299.7 393 272.3 421 245.2 429C218 437 191 425 163.8 438C136.7 451 109.3 489 82 492C54.7 495 27.3 463 13.7 447L0 431Z" fill="#303747"></path></svg>